<?xml version="1.0" encoding="UTF-8"?>
<svg id="_圖層_2" data-name="圖層 2" xmlns="http://www.w3.org/2000/svg" viewBox="0 0 665.24 600.89">
  <defs>
    <style>
      .cls-1 {
        fill: #5a8cc9;
      }

      .cls-2 {
        fill: #80a1d4;
      }

      .cls-3 {
        fill: #dae255;
      }
    </style>
  </defs>
  <g id="_圖層_1-2" data-name="圖層 1">
    <g>
      <path class="cls-3" d="M375.29,455.91l-53.77,53.77c-5.74,6.74-12.28,12.66-18.67,18.67-.08,.07-.13,.13-.21,.19-.04,.03-.08,.07-.12,.1s-.08,.06-.12,.1c-.15,.13-.3,.25-.45,.38s-.3,.25-.45,.38-.3,.25-.45,.37-.3,.25-.45,.37-.3,.25-.45,.37-.3,.25-.45,.37-.3,.25-.45,.37-.3,.24-.45,.37-.3,.24-.46,.36-.3,.24-.46,.36-.31,.24-.46,.36-.31,.24-.46,.36-.31,.24-.46,.36-.31,.24-.46,.36-.31,.24-.46,.35-.31,.24-.46,.35-.31,.23-.46,.35-.31,.23-.47,.35-.31,.23-.47,.35-.31,.23-.47,.35-.31,.23-.47,.35-.31,.23-.47,.34-.31,.23-.47,.34-.31,.23-.47,.34-.32,.23-.47,.34-.32,.23-.47,.34-.32,.22-.48,.34-.32,.22-.48,.33-.32,.22-.48,.33-.32,.22-.48,.33-.32,.22-.48,.33-.32,.22-.48,.33-.32,.22-.48,.33-.32,.22-.48,.32-.32,.22-.48,.32-.32,.21-.49,.32-.32,.21-.49,.32-.32,.21-.49,.32-.33,.21-.49,.32-.33,.21-.49,.31-.33,.21-.49,.31-.33,.21-.49,.31-.33,.21-.49,.31-.33,.21-.49,.31-.33,.2-.49,.31-.33,.2-.5,.31-.33,.2-.5,.3-.33,.2-.5,.3-.33,.2-.5,.3-.33,.2-.5,.3-.33,.2-.5,.3-.33,.2-.5,.3-.33,.2-.5,.29-.34,.2-.5,.29-.34,.19-.5,.29-.34,.19-.51,.29-.34,.19-.51,.29-.34,.19-.51,.29-.34,.19-.51,.28-.34,.19-.51,.28-.34,.19-.51,.28-.34,.19-.51,.28-.34,.19-.51,.28-.34,.18-.51,.28-.34,.18-.51,.27-.34,.18-.51,.27-.34,.18-.51,.27-.34,.18-.52,.27-.34,.18-.52,.27-.34,.18-.52,.27-.35,.18-.52,.27-.35,.18-.52,.26-.35,.17-.52,.26-.35,.17-.52,.26-.35,.17-.52,.26-.35,.17-.52,.26-.35,.17-.52,.26-.35,.17-.52,.25-.35,.17-.52,.25-.35,.17-.53,.25-.35,.17-.53,.25-.35,.17-.53,.25-.35,.16-.53,.25-.35,.16-.53,.24-.35,.16-.53,.24-.35,.16-.53,.24-.35,.16-.53,.24-.35,.16-.53,.24-.35,.16-.53,.24-.36,.16-.53,.23-.36,.16-.53,.23-.36,.15-.53,.23-.36,.15-.54,.23-.36,.15-.54,.23-.36,.15-.54,.23-.36,.15-.54,.22-.36,.15-.54,.22-.36,.15-.54,.22-.36,.15-.54,.22-.36,.15-.54,.22-.36,.14-.54,.22-.36,.14-.54,.21-.36,.14-.54,.21-.36,.14-.54,.21-.36,.14-.54,.21-.36,.14-.54,.21-.36,.14-.54,.21-.36,.14-.55,.2-.36,.14-.55,.2-.36,.13-.55,.2-.36,.13-.55,.2-.36,.13-.55,.2-.37,.13-.55,.2-.37,.13-.55,.19-.37,.13-.55,.19-.37,.13-.55,.19-.37,.13-.55,.19-.37,.13-.55,.19-.37,.12-.55,.19-.37,.12-.55,.18-.37,.12-.55,.18-.37,.12-.55,.18-.37,.12-.55,.18-.37,.12-.55,.18-.37,.12-.55,.18-.37,.12-.56,.17-.37,.12-.56,.17-.37,.11-.56,.17-.37,.11-.56,.17-.37,.11-.56,.17-.37,.11-.56,.17-.37,.11-.56,.16-.37,.11-.56,.16-.37,.11-.56,.16-.37,.11-.56,.16-.37,.11-.56,.16-.37,.1-.56,.16-.37,.1-.56,.15-.37,.1-.56,.15-.37,.1-.56,.15-.37,.1-.56,.15-.38,.1-.56,.15-.38,.1-.56,.15-.38,.1-.56,.14-.38,.1-.56,.14-.38,.09-.56,.14-.38,.09-.56,.14-.38,.09-.57,.14-.38,.09-.57,.14-.38,.09-.57,.13-.38,.09-.57,.13-.38,.09-.57,.13-.38,.09-.57,.13-.38,.09-.57,.13-.38,.08-.57,.13-.38,.08-.57,.12-.38,.08-.57,.12-.38,.08-.57,.12-.38,.08-.57,.12-.38,.08-.57,.12-.38,.08-.57,.12-.38,.08-.57,.11-.38,.08-.57,.11-.38,.07-.57,.11-.38,.07-.57,.11-.38,.07-.57,.11-.38,.07-.57,.11-.38,.07-.57,.1-.38,.07-.57,.1c-.19,.03-.38,.07-.57,.1s-.38,.07-.57,.1-.38,.06-.57,.1-.38,.06-.57,.1-.38,.06-.57,.09-.38,.06-.57,.09-.38,.06-.57,.09-.38,.06-.57,.09-.38,.06-.57,.09-.38,.06-.57,.08-.38,.06-.57,.08-.38,.05-.57,.08-.38,.05-.58,.08-.38,.05-.58,.08-.38,.05-.58,.08-.38,.05-.58,.07-.38,.05-.58,.07-.38,.05-.58,.07-.38,.05-.58,.07-.38,.05-.58,.07-.38,.04-.58,.07-.38,.04-.58,.06-.38,.04-.58,.06-.38,.04-.58,.06-.38,.04-.58,.06-.38,.04-.58,.06-.38,.04-.58,.06-.38,.04-.58,.05-.38,.04-.58,.05-.38,.03-.58,.05-.38,.03-.58,.05-.39,.03-.58,.05-.39,.03-.58,.05-.39,.03-.58,.04-.39,.03-.58,.04-.39,.03-.58,.04-.39,.03-.58,.04-.39,.02-.58,.04-.39,.02-.58,.03-.39,.02-.58,.03-.39,.02-.58,.03-.39,.02-.58,.03-.39,.02-.58,.03-.39,.02-.58,.03-.39,.02-.58,.02-.39,.02-.58,.02-.39,.01-.58,.02-.39,.01-.58,.02-.39,.01-.58,.02-.39,.01-.58,.02-.39,0-.58,.01-.39,0-.58,.01-.39,0-.58,.01-.39,0-.58,0-.39,0-.58,0-.39,0-.58,0-.39,0-.58,0-.39,0-.58,0-.39,0-.58,0-.39,0-.58,0-.38,0-.58,0-.38,0-.58,0-.38,0-.58,0-.38,0-.58,0-.38,0-.58-.01-.38,0-.58-.01-.38,0-.58-.01-.38-.01-.58-.02-.38-.01-.58-.02-.38-.01-.58-.02-.38-.01-.58-.02-.38-.01-.58-.02-.38-.02-.58-.02-.38-.02-.58-.03-.38-.02-.58-.03-.38-.02-.58-.03-.38-.02-.58-.03-.38-.02-.58-.03-.38-.02-.57-.04-.38-.02-.57-.04-.38-.03-.57-.04-.38-.03-.57-.04-.38-.03-.57-.04-.38-.03-.57-.04-.38-.03-.57-.05-.38-.03-.57-.05-.38-.03-.57-.05-.38-.03-.57-.05-.38-.04-.57-.05-.38-.04-.57-.05-.38-.04-.57-.06-.38-.04-.57-.06-.38-.04-.57-.06-.38-.04-.57-.06-.38-.04-.57-.06-.38-.04-.57-.07-.38-.04-.57-.07-.38-.05-.57-.07-.38-.05-.57-.07-.38-.05-.57-.07-.38-.05-.57-.07-.38-.05-.57-.08-.38-.05-.57-.08-.38-.05-.57-.08-.38-.05-.57-.08-.38-.06-.57-.08-.38-.06-.57-.09-.38-.06-.57-.09-.38-.06-.57-.09-.38-.06-.57-.09-.38-.06-.57-.09-.38-.06-.57-.09-.38-.06-.57-.1-.38-.06-.56-.1-.38-.07-.56-.1-.38-.07-.56-.1-.38-.07-.56-.1-.38-.07-.56-.1-.38-.07-.56-.11-.37-.07-.56-.11-.37-.07-.56-.11-.37-.07-.56-.11-.37-.08-.56-.11-.37-.08-.56-.12-.37-.08-.56-.12-.37-.08-.56-.12-.37-.08-.56-.12-.37-.08-.56-.12-.37-.08-.56-.12-.37-.08-.56-.13-.37-.09-.56-.13-.37-.09-.56-.13-.37-.09-.56-.13-.37-.09-.56-.13-.37-.09-.56-.14-.37-.09-.55-.14-.37-.09-.55-.14-.37-.09-.55-.14-.37-.1-.55-.14-.37-.1-.55-.14-.37-.1-.55-.15-.37-.1-.55-.15-.37-.1-.55-.15-.37-.1-.55-.15-.37-.1-.55-.15-.37-.1-.55-.16-.37-.1-.55-.16-.37-.11-.55-.16-.36-.11-.55-.16-.36-.11-.55-.16-.36-.11-.55-.16-.36-.11-.55-.17-.36-.11-.54-.17-.36-.11-.54-.17-.36-.11-.54-.17-.36-.12-.54-.17-.36-.12-.54-.18-.36-.12-.54-.18-.36-.12-.54-.18-.36-.12-.54-.18-.36-.12-.54-.18-.36-.12-.54-.19-.36-.12-.54-.19-.36-.13-.54-.19-.36-.13-.54-.19-.36-.13-.54-.19-.36-.13-.54-.19-.36-.13-.53-.2-.36-.13-.53-.2-.36-.13-.53-.2-.36-.13-.53-.2-.35-.14-.53-.2-.35-.14-.53-.21-.35-.14-.53-.21-.35-.14-.53-.21-.35-.14-.53-.21-.35-.14-.53-.21-.35-.14-.53-.21-.35-.14-.53-.22-.35-.15-.53-.22-.35-.15-.53-.22-.35-.15-.52-.22-.35-.15-.52-.22-.35-.15-.52-.23-.35-.15-.52-.23-.35-.15-.52-.23-.35-.15-.52-.23-.35-.16-.52-.23-.35-.16-.52-.24-.35-.16-.52-.24-.34-.16-.52-.24c-.08-.04-.17-.08-.25-.12C50.63,530.59,11.17,476.02,2.05,415.26c-2.21-14.7-2.69-29.74-1.17-44.51,.02-.09,18.28-184.67,18.28-184.67,1.38-19.46,18.28-34.1,37.69-32.72,9,.64,17.85,4.88,23.84,11.69,5.9,6.76,6.17,16.24,9.14,24.41,2.63,7.25,7.63,13.89,13.73,18.71,7.03,5.47,15.64,8.8,24.53,9.45,1.77,.12,3.55,.14,5.28,.06,5.39-.25,10.55-1.44,15.3-3.46,10.35-4.33,18.89-12.63,23.55-22.85,5.35-11.69,3.03-22.53,.74-34.45-1.15-5.9-1.69-12.21-1.27-18.03,2.81-39.24,36.92-68.81,76.15-66,14.36,1.03,28.2,6.4,39.43,15.42,12.13,9.65,17.69,21.87,23.87,35.65,20.12,44.77,62.99,155.76,52.35,268.84-1.51,15.76-2.8,30.41-6.1,45.23l17.91,17.89Z"/>
      <g>
        <g>
          <rect class="cls-3" x="251.57" y="259.64" width="102.51" height="102.51" transform="translate(308.53 -123.07) rotate(45)"/>
          <rect class="cls-3" x="396.5" y="404.65" width="102.51" height="102.51" transform="translate(453.52 -183.08) rotate(45)"/>
        </g>
        <g>
          <g>
            <rect class="cls-1" x="541.49" y="114.66" width="102.51" height="102.51" transform="translate(290.93 -370.54) rotate(45)"/>
            <rect class="cls-1" x="179.04" y="332.16" width="102.51" height="102.51" transform="translate(338.57 -50.55) rotate(45)"/>
            <rect class="cls-1" x="323.99" y="332.16" width="102.51" height="102.51" transform="translate(381.02 -153.04) rotate(45)"/>
            <rect class="cls-1" x="469.04" y="332.16" width="102.51" height="102.51" transform="translate(423.51 -255.61) rotate(45)"/>
            <rect class="cls-1" x="324.03" y="187.15" width="102.51" height="102.51" transform="translate(278.49 -195.54) rotate(45)"/>
          </g>
          <g>
            <rect class="cls-2" x="396.51" y="114.66" width="102.51" height="102.51" transform="translate(248.47 -268.03) rotate(45)"/>
            <rect class="cls-2" x="396.51" y="259.64" width="102.51" height="102.51" transform="translate(350.98 -225.56) rotate(45)"/>
          </g>
        </g>
      </g>
      <rect class="cls-3" x="49.16" y="0" width="102.51" height="102.51" rx="51.26" ry="51.26" transform="translate(39.09 -43.34) rotate(30)"/>
      <rect class="cls-1" x="324.03" y="477.14" width="102.51" height="102.51" transform="translate(483.55 -110.6) rotate(45)"/>
    </g>
  </g>
</svg>