<?xml version="1.0" encoding="UTF-8"?>
<svg id="_圖層_2" data-name="圖層 2" xmlns="http://www.w3.org/2000/svg" viewBox="0 0 68.21 68.21">
  <defs>
    <style>
      .cls-1 {
        fill: #5a8cc9;
      }

      .cls-2 {
        fill: none;
      }
    </style>
  </defs>
  <g id="_圖層_1-2" data-name="圖層 1">
    <g>
      <circle class="cls-2" cx="34.1" cy="34.1" r="34.1"/>
      <g>
        <path class="cls-1" d="M52.59,37.99c-.18,0-.36,.02-.54,.02-3.74,0-7.48,0-11.22,0-.51,0-.53,.03-.46,.53,.16,1.14,.57,2.13,1.56,2.81,1.34,.93,3.53,.96,4.84,.05,.35-.24,.63-.56,.84-.93,.13-.23,.3-.33,.58-.33,1.26,.01,2.52,0,3.79,0,.39,0,.42,.04,.33,.42-.25,1.05-.86,1.89-1.58,2.66-1.34,1.42-3.02,2.13-4.93,2.35-1.8,.21-3.56,.07-5.23-.66-1.82-.79-3.3-1.97-4.06-3.87-.51-1.28-.69-2.61-.69-3.99,0-1.57,.17-3.09,.8-4.54,.99-2.24,2.71-3.65,5.05-4.26,2.07-.55,4.14-.44,6.16,.33,1.76,.67,2.99,1.92,3.85,3.56,.54,1.04,.77,2.17,.91,3.32v2.53Zm-8.36-2.96c.46,0,.91,0,1.37,0,.67,0,1.34,0,2.02,0,.15,0,.34,.03,.31-.23-.13-.98-.47-1.85-1.32-2.46-1.03-.73-2.16-.85-3.36-.63-.63,.11-1.19,.37-1.64,.84-.54,.57-.89,1.25-1.05,2.02-.09,.44-.08,.46,.36,.46,1.1,0,2.21,0,3.31,0Z"/>
        <path class="cls-1" d="M31.03,33.01c.27,.13,.54,.25,.8,.4,1.6,.94,2.38,2.37,2.54,4.2,.18,1.96-.37,3.69-1.64,5.17-1.02,1.19-2.36,1.83-3.89,2.09-.99,.17-1.98,.23-2.98,.23-3.25,0-6.49,0-9.74,0-.5,0-.5,0-.5-.5,0-7.19,0-14.38,0-21.57,0-.5,0-.5,.49-.5,3.51,0,7.02,0,10.53,0,1.46,0,2.88,.2,4.19,.9,1.73,.92,2.63,2.39,2.81,4.34,.06,.69,.03,1.37-.11,2.04-.27,1.31-1.02,2.29-2.18,2.95-.09,.05-.19,.11-.28,.17-.02,.01-.02,.04-.05,.08Zm-7.39,2.2c-1.14,0-2.08,.01-3.02,0-.31,0-.42,.09-.41,.41,.01,1.71,.01,3.41,0,5.12,0,.34,.1,.43,.43,.43,1.63-.02,3.27,0,4.9-.01,.65,0,1.3-.03,1.93-.2,.95-.26,1.6-.84,1.88-1.8,.15-.51,.15-1.02,.12-1.54-.05-.92-.51-1.59-1.34-1.98-.39-.19-.82-.28-1.25-.34-1.15-.15-2.3-.03-3.25-.07Zm-.05-8.68c-1.11,0-2.03,0-2.94,0-.32,0-.45,.07-.44,.42,.02,1.36,.02,2.71,0,4.07,0,.33,.11,.4,.42,.4,1.66-.01,3.31,0,4.97-.01,.65,0,1.3-.05,1.91-.28,.45-.17,.89-.37,1.17-.8,.97-1.48,.19-3.31-1.52-3.64-1.25-.24-2.51-.12-3.57-.16Z"/>
        <path class="cls-1" d="M44.15,26.46c-1.49,0-2.98,0-4.47,0-.37,0-.48-.12-.47-.48,.02-.68,.02-1.37,0-2.05,0-.28,.09-.39,.37-.39,3.04,0,6.08,0,9.11,0,.28,0,.38,.11,.38,.38-.01,.67,0,1.34,0,2.02,0,.5,0,.51-.5,.51-1.48,0-2.95,0-4.43,0Z"/>
      </g>
    </g>
  </g>
</svg>