<?xml version="1.0" encoding="UTF-8"?>
<svg id="_圖層_2" data-name="圖層 2" xmlns="http://www.w3.org/2000/svg" viewBox="0 0 68.21 68.21">
  <defs>
    <style>
      .cls-1 {
        fill: #5a8cc9;
      }

      .cls-2 {
        fill: none;
      }
    </style>
  </defs>
  <g id="_圖層_1-2" data-name="圖層 1">
    <g>
      <circle class="cls-2" cx="34.1" cy="34.1" r="34.1"/>
      <path class="cls-1" d="M14.25,32.64c0-.9,0-1.81,0-2.71,.09-.48,.15-.97,.26-1.45,.8-3.61,2.79-6.47,5.64-8.75,4.2-3.35,9.07-4.74,14.38-4.69,2.71,.03,5.36,.53,7.9,1.51,3.66,1.42,6.79,3.57,8.99,6.87,2.99,4.49,3.39,9.22,.95,14.1-1.06,2.12-2.61,3.87-4.33,5.48-3.91,3.66-8.27,6.71-12.91,9.38-.47,.27-.95,.52-1.47,.68-1.1,.33-1.54-.07-1.36-1.21,.15-.96,.37-1.9,.35-2.88-.01-.62-.28-1.06-.85-1.31-.38-.16-.77-.28-1.18-.34-3.29-.49-6.35-1.56-9.12-3.42-2.76-1.85-4.91-4.24-6.22-7.34-.53-1.26-.83-2.58-1.01-3.92Zm23.5-.16c-.17-.07-.23-.2-.31-.32-1.21-1.65-2.43-3.31-3.64-4.96-.37-.5-.75-.65-1.18-.51-.48,.16-.69,.51-.69,1.12,0,1.83,0,3.67,0,5.5,0,.75-.01,1.5,0,2.25,.02,.71,.64,1.16,1.27,.95,.45-.15,.68-.49,.69-1.05,0-1.43,0-2.87,0-4.3,0-.13-.07-.33,.1-.37,.13-.04,.19,.15,.27,.25,1.18,1.61,2.36,3.23,3.54,4.84,.09,.12,.18,.25,.29,.36,.28,.3,.63,.4,1.02,.27,.4-.14,.64-.42,.67-.86,.01-.15,.01-.31,.01-.46,0-2.39,0-4.78,0-7.17,0-.18,0-.36-.02-.54-.06-.47-.44-.82-.91-.85-.41-.03-.84,.27-.98,.69-.07,.2-.08,.4-.08,.61,0,1.36,0,2.71,0,4.07,0,.15,.03,.31-.06,.48Zm3.54-.87c0,1.28,0,2.56,0,3.84,0,.64,.37,1.11,.94,1.12,1.35,.02,2.71,.02,4.06,0,.55,0,.92-.47,.91-1.01-.01-.54-.4-.94-.97-.95-.84-.02-1.68-.02-2.51,0-.33,0-.47-.13-.45-.46,.01-.34,.02-.67,0-1.01-.02-.38,.11-.53,.51-.52,.8,.03,1.6,.02,2.4,0,.61,0,1.02-.42,1.03-.98,0-.57-.36-.98-.95-1-.84-.02-1.68-.01-2.51-.02-.22,0-.46,0-.46-.33,0-.44,0-.88,0-1.32,0-.22,.11-.32,.34-.32,.39,0,.77,0,1.16,0,.45,0,.9,.01,1.35,0,.69-.03,1.1-.45,1.07-1.06-.02-.57-.45-.95-1.1-.96-1.2,0-2.4,0-3.6,0-.81,0-1.21,.4-1.21,1.22,0,1.25,0,2.51,0,3.76Zm-19.9,.02c0,1.28,0,2.56,0,3.83,0,.74,.38,1.11,1.13,1.11,1.22,0,2.45,0,3.67,0,.65,0,1.11-.42,1.11-.99,0-.58-.43-.98-1.1-.99-.77,0-1.55,0-2.32,0-.49,0-.52-.03-.52-.53,0-2.09,0-4.18,0-6.27,0-.68-.42-1.16-.99-1.15-.58,0-.97,.47-.98,1.16,0,1.28,0,2.56,0,3.83Zm6.97-.03h0c0,1.29,0,2.58,0,3.88,0,.42,.13,.76,.51,.97,.67,.37,1.45-.1,1.45-.91,.01-2.62,0-5.24,0-7.87,0-.1-.01-.21-.04-.31-.13-.45-.6-.78-1.03-.72-.51,.06-.89,.47-.89,1.01-.01,1.32,0,2.64,0,3.95Z"/>
    </g>
  </g>
</svg>