<?xml version="1.0" encoding="UTF-8"?>
<svg id="_圖層_2" data-name="圖層 2" xmlns="http://www.w3.org/2000/svg" viewBox="0 0 38.51 27.11">
  <defs>
    <style>
      .cls-1 {
        fill: #dae255;
      }
    </style>
  </defs>
  <g id="_圖層_1-2" data-name="圖層 1">
    <g>
      <path class="cls-1" d="M38.51,24.31q-.31,.94-1,.25c-3.57-3.55-7.14-7.09-10.71-10.64q-.36-.36,0-.72c3.66-3.64,7.32-7.27,10.98-10.9,.41-.41,.44-.4,.62,.16,.04,.12,.08,.24,.11,.36V24.31Z"/>
      <path class="cls-1" d="M19.29,0C24.51,0,29.73,0,34.95,0c.44,0,.87,.04,1.29,.19,.36,.13,.38,.19,.1,.47-1.55,1.55-3.1,3.1-4.66,4.64-1.96,1.95-3.93,3.9-5.89,5.85-1.32,1.32-2.64,2.64-3.97,3.95-1.03,1.02-2.24,1.38-3.65,.94-.6-.18-1.09-.56-1.53-1-1.43-1.42-2.85-2.85-4.28-4.27C9.02,7.44,5.66,4.11,2.3,.77c-.43-.42-.41-.45,.17-.64C2.84,.02,3.21,0,3.59,0c5.23,0,10.47,0,15.7,0Z"/>
      <path class="cls-1" d="M19.25,27.11c-5.22,0-10.44,0-15.67,0-.4,0-.8-.03-1.18-.16-.49-.16-.5-.21-.15-.56,1.13-1.12,2.25-2.25,3.38-3.37,2.55-2.53,5.1-5.06,7.65-7.59,.35-.34,.34-.34,.7,0,.64,.62,1.21,1.3,1.93,1.84,2.18,1.64,5.19,1.48,7.17-.39,.52-.49,1.03-.99,1.52-1.51,.22-.24,.37-.25,.6,0,1.02,1.04,2.05,2.06,3.08,3.08,2.66,2.64,5.31,5.28,7.97,7.91,.39,.39,.38,.42-.16,.6-.38,.12-.76,.15-1.15,.15-5.23,0-10.47,0-15.7,0Z"/>
      <path class="cls-1" d="M0,13.55C0,10.19,0,6.84,0,3.48c0-.45,.07-.87,.23-1.28,.08-.21,.19-.25,.35-.08,.05,.05,.11,.1,.16,.16,3.66,3.64,7.32,7.27,10.98,10.91q.38,.38,.01,.75c-3.66,3.64-7.32,7.27-10.98,10.91-.06,.06-.13,.12-.19,.18-.16,.16-.26,.1-.33-.08C.07,24.52,0,24.1,0,23.65c0-3.37,0-6.74,0-10.1Z"/>
    </g>
  </g>
</svg>