<?xml version="1.0" encoding="UTF-8"?>
<svg id="_圖層_2" data-name="圖層 2" xmlns="http://www.w3.org/2000/svg" viewBox="0 0 68.21 68.21">
  <defs>
    <style>
      .cls-1 {
        fill: #5a8cc9;
      }

      .cls-2 {
        fill: none;
      }
    </style>
  </defs>
  <g id="_圖層_1-2" data-name="圖層 1">
    <g>
      <circle class="cls-2" cx="34.1" cy="34.1" r="34.1"/>
      <g>
        <path class="cls-1" d="M24.55,15.68h19.19c.52,.13,1.06,.2,1.58,.33,4.14,1.09,7.29,5.09,7.31,9.37,.03,5.84,0,11.68,0,17.52,0,.98-.2,1.93-.5,2.86-1.35,4.1-5.28,6.92-9.66,6.88-5.55-.05-11.11-.01-16.66-.01-.48,0-.96,0-1.44-.07-3.53-.55-6.11-2.42-7.74-5.59-.52-1.02-.78-2.11-.96-3.23,0-6.4,0-12.79,0-19.19,.04-.18,.08-.35,.11-.53,.6-3.29,2.4-5.71,5.34-7.29,1.07-.58,2.24-.86,3.43-1.06Zm9.6,28.53c5.66-.09,10.05-4.51,10.04-10.07,0-5.66-4.49-10.05-10.05-10.04-5.66,0-10.05,4.49-10.04,10.05,0,5.66,4.49,9.98,10.05,10.06Zm13.25-20.73c.01-1.65-1.26-2.94-2.9-2.95-1.63-.01-2.98,1.28-2.96,2.9,.02,1.66,1.22,2.93,2.93,2.94,1.82,.01,2.96-1.49,2.93-2.89Z"/>
        <path class="cls-1" d="M42.11,34.15c0,4.4-3.56,7.95-7.96,7.95-4.42,0-7.97-3.56-7.96-7.99,0-4.4,3.57-7.94,7.98-7.94,4.4,0,7.95,3.56,7.95,7.97Z"/>
        <path class="cls-1" d="M44.48,24.28c-.47,0-.84-.37-.84-.84,0-.46,.39-.85,.84-.85,.45,0,.85,.4,.85,.85,0,.46-.39,.84-.85,.84Z"/>
      </g>
    </g>
  </g>
</svg>