<?xml version="1.0" encoding="UTF-8"?>
<svg id="_圖層_2" data-name="圖層 2" xmlns="http://www.w3.org/2000/svg" viewBox="0 0 68.21 68.21">
  <defs>
    <style>
      .cls-1 {
        fill: #5a8cc9;
      }

      .cls-2 {
        fill: none;
      }
    </style>
  </defs>
  <g id="_圖層_1-2" data-name="圖層 1">
    <g>
      <circle class="cls-2" cx="34.1" cy="34.1" r="34.1"/>
      <path class="cls-1" d="M29.96,53.41c0-3.6,0-7.21,0-10.81,0-2.07,0-4.14,0-6.22,0-.51,0-.51-.53-.51-1.63,0-3.26,0-4.9,0-.36,0-.48-.11-.48-.47,.01-2.01,.01-4.02,0-6.03,0-.36,.11-.48,.47-.48,1.63,.02,3.26,0,4.9,0q.53,0,.53-.55c0-1.43-.02-2.86,0-4.29,.02-1.44,.18-2.85,.72-4.21,1.05-2.64,3.02-4.19,5.75-4.81,1.61-.37,3.25-.25,4.88-.19,.81,.03,1.62,.13,2.44,.17,.3,.02,.42,.11,.42,.42-.01,1.81-.01,3.62,0,5.42,0,.29-.09,.4-.39,.39-.99-.01-1.98-.02-2.98,0-.54,.01-1.08,.04-1.61,.14-1.1,.23-1.75,.88-1.94,1.98-.06,.32-.1,.64-.1,.97,0,1.37,.01,2.74,0,4.11,0,.36,.12,.44,.46,.44,1.95-.01,3.89,0,5.84,0,.49,0,.49,0,.43,.48-.26,2.03-.52,4.05-.77,6.08-.04,.34-.2,.4-.5,.4-1.64,0-3.29,0-4.93,0q-.52,0-.52,.52c0,5.49,0,10.97,0,16.46,0,.19-.01,.38-.02,.56h-7.16Z"/>
    </g>
  </g>
</svg>