<?xml version="1.0" encoding="UTF-8"?>
<svg id="_圖層_2" data-name="圖層 2" xmlns="http://www.w3.org/2000/svg" xmlns:xlink="http://www.w3.org/1999/xlink" viewBox="0 0 236.4 236.6">
  <defs>
    <style>
      .cls-1 {
        fill: #80a1d4;
        filter: url(#drop-shadow-1);
      }

      .cls-2 {
        fill: #dae255;
      }
    </style>
    <filter id="drop-shadow-1" filterUnits="userSpaceOnUse">
      <feOffset dx="6.01" dy="6.01"/>
      <feGaussianBlur result="blur" stdDeviation="4.29"/>
      <feFlood flood-color="#4039c9" flood-opacity=".1"/>
      <feComposite in2="blur" operator="in"/>
      <feComposite in="SourceGraphic"/>
    </filter>
  </defs>
  <g id="_圖層_1-2" data-name="圖層 1">
    <g>
      <ellipse class="cls-1" cx="118.16" cy="118.35" rx="79.73" ry="79.77"/>
      <g>
        <path class="cls-2" d="M74.42,19.57c-1.74-4.49,.16-8.21,3.49-9.5,1.79-.69,3.31-.35,4.57,.12l-.44,1.33c-1.13-.46-2.34-.66-3.6-.17-2.67,1.03-3.8,4.2-2.47,7.63,1.33,3.43,4.1,5.06,6.92,3.97,1.39-.54,2.33-1.69,2.93-2.84l1.12,.73c-.8,1.47-1.95,2.76-3.64,3.41-3.51,1.35-7.15-.2-8.87-4.66Z"/>
        <path class="cls-2" d="M90.25,13.92c-.96-4.72,1.46-8.05,4.88-8.75,3.42-.69,6.94,1.44,7.9,6.16,.95,4.69-1.47,8-4.89,8.69-3.42,.69-6.94-1.41-7.89-6.11Zm11.18-2.27c-.73-3.61-3.28-5.69-6.03-5.13-2.76,.56-4.27,3.46-3.54,7.07s3.25,5.67,6,5.11c2.76-.56,4.3-3.44,3.57-7.05Z"/>
        <path class="cls-2" d="M111.06,3.35l1.3-.02,.23,2.19h.05c1.44-1.46,2.91-2.62,4.88-2.65,3-.05,4.41,1.79,4.47,5.5l.15,9.23-1.57,.03-.15-9.01c-.05-3-1.02-4.37-3.24-4.33-1.68,.03-2.85,.91-4.5,2.67l.18,10.79-1.57,.03-.24-14.42Z"/>
        <path class="cls-2" d="M130.9,14.31l1.23-8.9-2.22-.31,.16-1.18,2.3,.18,.76-4.1,1.31,.18-.57,4.13,4.1,.57-.18,1.31-4.1-.57-1.24,9.01c-.25,1.8,.07,3.04,1.98,3.3,.54,.07,1.26-.02,1.8-.19l.21,1.29c-.87,.18-1.82,.3-2.46,.21-2.81-.39-3.43-2.28-3.06-4.93Z"/>
        <path class="cls-2" d="M141.53,16.51c.88-3.07,4.03-3.74,10.34-2.69,.64-2.04,.66-4.35-1.97-5.1-1.82-.52-3.65-.12-4.82,.33l-.36-1.29c1.28-.42,3.51-.96,5.78-.31,3.3,.95,3.79,3.65,2.91,6.72l-2.53,8.79-1.27-.37,.35-1.81h-.05c-1.73,.73-3.67,1.21-5.44,.7-2.24-.64-3.67-2.41-2.93-4.98Zm8.73,2.93l1.29-4.5c-5.64-.95-7.88-.21-8.49,1.92-.55,1.9,.54,3,2.08,3.44,1.53,.44,3.07,.09,5.12-.87Z"/>
        <path class="cls-2" d="M160.08,18.79c2.09-4.34,6.1-5.5,9.32-3.96,1.73,.83,2.53,2.17,3.04,3.41l-1.27,.59c-.44-1.14-1.12-2.16-2.34-2.75-2.58-1.24-5.66,.1-7.26,3.42-1.59,3.32-.88,6.45,1.85,7.76,1.34,.64,2.83,.55,4.08,.19l.24,1.32c-1.61,.42-3.34,.46-4.98-.32-3.39-1.63-4.75-5.35-2.68-9.66Z"/>
        <path class="cls-2" d="M174.71,30.12l4.98-7.48-1.87-1.24,.66-.99,1.99,1.16,2.47-3.36,1.1,.74-2.31,3.47,3.44,2.29-.74,1.1-3.44-2.29-5.04,7.57c-1,1.51-1.26,2.77,.34,3.83,.45,.3,1.14,.53,1.7,.61l-.38,1.25c-.86-.22-1.76-.52-2.3-.88-2.36-1.58-2.09-3.54-.61-5.77Z"/>
        <path class="cls-2" d="M200.37,47.02l4.21,5.15-1.03,.84-4.21-5.15,1.03-.84Z"/>
        <path class="cls-2" d="M217.03,74.94c4.5-1.72,8.21,.19,9.49,3.53,.69,1.79,.34,3.32-.14,4.57l-1.33-.45c.46-1.13,.67-2.34,.19-3.6-1.02-2.68-4.18-3.82-7.62-2.5-3.44,1.31-5.08,4.08-3.99,6.91,.53,1.39,1.68,2.34,2.83,2.94l-.73,1.12c-1.46-.8-2.75-1.96-3.4-3.65-1.34-3.51,.22-7.15,4.7-8.86Z"/>
        <path class="cls-2" d="M222.63,90.8c4.73-.94,8.05,1.49,8.73,4.91,.68,3.42-1.46,6.94-6.19,7.88-4.7,.93-8-1.5-8.68-4.92-.68-3.42,1.44-6.93,6.14-7.87Zm2.23,11.2c3.61-.72,5.7-3.26,5.15-6.02-.55-2.76-3.45-4.28-7.06-3.56-3.61,.72-5.68,3.23-5.13,5.99,.55,2.76,3.42,4.31,7.04,3.59Z"/>
        <path class="cls-2" d="M233.1,111.5l.02,1.3-2.19,.23v.05c1.46,1.44,2.62,2.91,2.65,4.88,.05,3-1.79,4.41-5.5,4.47l-9.23,.15-.03-1.57,9.01-.15c3-.05,4.37-1.02,4.33-3.24-.03-1.68-.91-2.85-2.67-4.5l-10.79,.18-.03-1.57,14.42-.24Z"/>
        <path class="cls-2" d="M222.09,131.43l8.9,1.26,.31-2.22,1.18,.17-.19,2.29,4.1,.77-.19,1.31-4.13-.58-.58,4.1-1.31-.19,.58-4.1-9-1.27c-1.79-.25-3.04,.06-3.31,1.96-.08,.54,.01,1.26,.18,1.8l-1.29,.2c-.18-.87-.29-1.82-.2-2.46,.4-2.81,2.29-3.42,4.94-3.04Z"/>
        <path class="cls-2" d="M219.86,142.05c3.07,.89,3.73,4.04,2.66,10.35,2.04,.65,4.34,.67,5.11-1.95,.53-1.82,.13-3.65-.32-4.82l1.29-.36c.42,1.28,.95,3.52,.29,5.77-.96,3.3-3.66,3.78-6.73,2.89l-8.78-2.55,.37-1.27,1.81,.36,.02-.05c-.74-1.74-1.21-3.68-.7-5.44,.65-2.23,2.42-3.66,4.99-2.92Zm-2.96,8.72l4.5,1.31c.96-5.64,.23-7.88-1.9-8.5-1.9-.55-3,.54-3.45,2.07s-.1,3.07,.85,5.12Z"/>
        <path class="cls-2" d="M217.53,160.59c4.33,2.1,5.49,6.12,3.93,9.33-.84,1.73-2.18,2.52-3.42,3.03l-.58-1.28c1.14-.44,2.16-1.12,2.75-2.33,1.25-2.58-.09-5.66-3.4-7.27-3.31-1.6-6.45-.9-7.77,1.83-.65,1.34-.56,2.83-.2,4.08l-1.32,.23c-.42-1.62-.46-3.35,.33-4.98,1.64-3.38,5.36-4.74,9.67-2.65Z"/>
        <path class="cls-2" d="M206.17,175.2l7.47,5,1.25-1.87,.99,.66-1.17,1.99,3.36,2.48-.74,1.1-3.46-2.32-2.3,3.44-1.1-.74,2.3-3.44-7.56-5.06c-1.51-1.01-2.77-1.27-3.83,.33-.3,.45-.54,1.14-.62,1.7l-1.25-.38c.22-.86,.53-1.76,.89-2.3,1.58-2.36,3.55-2.08,5.77-.59Z"/>
        <path class="cls-2" d="M189.2,200.82l-5.17,4.19-.84-1.03,5.17-4.19,.84,1.03Z"/>
        <path class="cls-2" d="M161.28,217.39c1.71,4.5-.21,8.21-3.55,9.48-1.79,.68-3.32,.33-4.57-.15l.45-1.33c1.13,.47,2.34,.68,3.6,.2,2.68-1.02,3.83-4.17,2.52-7.61s-4.07-5.08-6.9-4.01c-1.39,.53-2.35,1.67-2.95,2.83l-1.12-.73c.8-1.46,1.97-2.74,3.66-3.39,3.51-1.33,7.15,.24,8.85,4.72Z"/>
        <path class="cls-2" d="M145.41,222.95c.93,4.73-1.51,8.04-4.93,8.71-3.42,.67-6.93-1.48-7.86-6.21-.92-4.7,1.52-7.99,4.94-8.66s6.93,1.45,7.85,6.15Zm-11.2,2.2c.71,3.61,3.24,5.71,6,5.16,2.76-.54,4.29-3.43,3.58-7.04-.71-3.61-3.21-5.68-5.97-5.14-2.76,.54-4.32,3.41-3.61,7.02Z"/>
        <path class="cls-2" d="M124.68,233.36l-1.3,.02-.23-2.19h-.05c-1.44,1.46-2.91,2.62-4.88,2.65-3,.05-4.41-1.79-4.47-5.5l-.15-9.23,1.57-.03,.15,9.01c.05,3,1.02,4.37,3.24,4.33,1.68-.03,2.85-.91,4.5-2.67l-.18-10.79,1.57-.03,.24,14.42Z"/>
        <path class="cls-2" d="M104.75,222.3l-1.29,8.89,2.22,.32-.17,1.18-2.29-.19-.78,4.1-1.31-.19,.6-4.12-4.09-.59,.19-1.31,4.09,.59,1.3-9c.26-1.79-.05-3.04-1.95-3.32-.54-.08-1.26,0-1.8,.18l-.2-1.29c.87-.17,1.82-.29,2.46-.19,2.81,.41,3.41,2.3,3.03,4.95Z"/>
        <path class="cls-2" d="M94.15,220.03c-.9,3.06-4.06,3.72-10.36,2.62-.66,2.04-.69,4.34,1.94,5.11,1.82,.53,3.65,.14,4.83-.3l.35,1.29c-1.28,.41-3.52,.94-5.78,.28-3.3-.97-3.77-3.67-2.87-6.74l2.58-8.77,1.27,.37-.36,1.81,.05,.02c1.74-.73,3.68-1.2,5.45-.68,2.23,.66,3.66,2.43,2.9,5Zm-8.71-2.98l-1.32,4.49c5.63,.98,7.88,.26,8.5-1.87,.56-1.89-.53-3-2.06-3.45s-3.07-.11-5.12,.83Z"/>
        <path class="cls-2" d="M75.59,217.63c-2.12,4.33-6.13,5.46-9.34,3.9-1.73-.84-2.51-2.19-3.02-3.43l1.28-.58c.43,1.15,1.11,2.17,2.32,2.76,2.58,1.26,5.66-.06,7.28-3.37s.92-6.45-1.8-7.77c-1.34-.65-2.83-.57-4.08-.22l-.23-1.32c1.62-.41,3.35-.44,4.98,.35,3.38,1.65,4.72,5.38,2.61,9.68Z"/>
        <path class="cls-2" d="M61.07,206.24l-5.03,7.45,1.86,1.26-.67,.99-1.98-1.17-2.49,3.35-1.1-.74,2.33-3.45-3.43-2.32,.74-1.1,3.43,2.32,5.09-7.54c1.01-1.5,1.28-2.76-.31-3.84-.45-.3-1.14-.54-1.7-.62l.38-1.24c.86,.22,1.76,.54,2.3,.9,2.35,1.59,2.07,3.55,.57,5.78Z"/>
        <path class="cls-2" d="M35.51,189.18l-4.18-5.18,1.03-.83,4.18,5.18-1.03,.83Z"/>
        <path class="cls-2" d="M19.01,161.15c-4.51,1.69-8.21-.24-9.47-3.58-.67-1.8-.32-3.32,.17-4.57l1.33,.46c-.47,1.13-.68,2.34-.21,3.6,1.01,2.69,4.16,3.84,7.61,2.55,3.45-1.29,5.1-4.05,4.04-6.89-.52-1.39-1.66-2.35-2.82-2.96l.74-1.11c1.46,.81,2.74,1.98,3.37,3.67,1.32,3.52-.27,7.15-4.75,8.83Z"/>
        <path class="cls-2" d="M13.51,145.29c-4.73,.91-8.04-1.53-8.7-4.96-.66-3.43,1.51-6.93,6.24-7.84,4.7-.91,7.99,1.54,8.65,4.97,.66,3.43-1.48,6.93-6.18,7.83Zm-2.16-11.21c-3.62,.7-5.72,3.23-5.19,5.99s3.42,4.3,7.03,3.6c3.62-.7,5.7-3.19,5.17-5.96-.53-2.76-3.4-4.33-7.01-3.63Z"/>
        <path class="cls-2" d="M3.19,124.55l-.02-1.3,2.19-.23v-.05c-1.46-1.44-2.62-2.91-2.65-4.88-.05-3,1.79-4.41,5.5-4.47l9.23-.15,.03,1.57-9.01,.15c-3,.05-4.37,1.02-4.33,3.24,.03,1.68,.91,2.85,2.67,4.5l10.79-.18,.03,1.57-14.42,.24Z"/>
        <path class="cls-2" d="M14.29,104.61l-8.89-1.31-.33,2.22-1.18-.17,.2-2.29-4.1-.8,.19-1.31,4.12,.61,.6-4.1,1.31,.19-.6,4.09,9,1.33c1.79,.26,3.04-.04,3.32-1.94,.08-.54,0-1.26-.17-1.8l1.29-.19c.17,.87,.28,1.82,.18,2.46-.42,2.81-2.31,3.41-4.96,3.01Z"/>
        <path class="cls-2" d="M16.59,94.02c-3.06-.91-3.71-4.06-2.59-10.36-2.03-.66-4.34-.7-5.12,1.92-.54,1.81-.15,3.65,.29,4.83l-1.29,.35c-.41-1.28-.93-3.52-.26-5.78,.98-3.29,3.69-3.76,6.75-2.85l8.77,2.6-.38,1.27-1.81-.37v.05c.71,1.74,1.18,3.68,.65,5.45-.66,2.23-2.44,3.65-5.01,2.89Zm3.01-8.7l-4.49-1.33c-1,5.63-.28,7.87,1.85,8.5,1.89,.56,3-.52,3.46-2.05,.45-1.53,.12-3.07-.82-5.12Z"/>
        <path class="cls-2" d="M19.03,75.5c-4.32-2.12-5.45-6.15-3.88-9.35,.85-1.72,2.2-2.51,3.44-3.01l.58,1.28c-1.15,.43-2.17,1.1-2.77,2.32-1.26,2.57,.05,5.66,3.36,7.28,3.3,1.62,6.45,.94,7.78-1.78,.66-1.34,.57-2.82,.23-4.08l1.32-.23c.41,1.62,.44,3.35-.36,4.97-1.66,3.37-5.39,4.71-9.69,2.59Z"/>
        <path class="cls-2" d="M30.48,60.97l-7.44-5.04-1.26,1.86-.99-.67,1.18-1.98-3.34-2.5,.74-1.1,3.45,2.34,2.32-3.43,1.1,.75-2.32,3.42,7.53,5.11c1.5,1.02,2.76,1.28,3.84-.31,.3-.45,.54-1.14,.63-1.7l1.24,.39c-.22,.86-.54,1.76-.9,2.3-1.59,2.35-3.56,2.06-5.78,.56Z"/>
        <path class="cls-2" d="M47.6,35.46l5.19-4.16,.83,1.03-5.19,4.16-.83-1.03Z"/>
      </g>
    </g>
  </g>
</svg>