<?xml version="1.0" encoding="UTF-8"?>
<svg id="_圖層_2" data-name="圖層 2" xmlns="http://www.w3.org/2000/svg" viewBox="0 0 87.07 83.48">
  <defs>
    <style>
      .cls-1 {
        fill: #dae255;
      }
    </style>
  </defs>
  <g id="_圖層_1-2" data-name="圖層 1">
    <path class="cls-1" d="M87.07,32.59v5.94c-.12,.75-.23,1.51-.36,2.26-1.11,6.12-4.12,11.25-8.12,15.89-3.99,4.64-8.62,8.57-13.45,12.28-6.04,4.64-12.32,8.93-18.96,12.67-1.35,.76-2.72,1.53-4.28,1.79-1.53,.26-2.25-.38-2.23-1.92,0-.25,.02-.51,.06-.76,.22-1.45,.45-2.9,.66-4.36,.54-3.76-.49-5.14-4.27-5.71-2.24-.33-4.46-.76-6.63-1.39-9.31-2.67-17.36-7.34-23.14-15.28C-.5,44.6-1.95,34.34,2.69,23.54,6.1,15.62,12.11,9.99,19.61,5.95,29.19,.78,39.46-.88,50.22,.43c8.06,.98,15.49,3.68,22.1,8.45,6.72,4.84,11.6,11.05,13.84,19.14,.42,1.5,.62,3.04,.9,4.57Zm-35.23,5.6c-.5-.12-.62-.44-.8-.68-1.7-2.3-3.38-4.6-5.08-6.9-1.06-1.43-2.09-2.89-3.18-4.29-.57-.73-1.33-1.14-2.31-.82-.93,.31-1.53,1.03-1.54,2.01-.02,5.83-.01,11.65,0,17.48,0,.89,.45,1.57,1.27,1.95,1.47,.67,3-.38,3.02-2.09,.03-3.11,.01-6.22,.01-9.33,0-.25,0-.51,.03-.76,.04-.33,.23-.38,.45-.14,.19,.21,.35,.44,.52,.67,2.54,3.47,5.07,6.94,7.62,10.4,.23,.32,.47,.64,.76,.91,.61,.56,1.35,.71,2.13,.42,.8-.3,1.32-.86,1.41-1.74,.03-.34,.04-.68,.04-1.02,0-5.32,0-10.63,0-15.95,0-.34,0-.68-.05-1.02-.13-1.05-.93-1.81-1.97-1.9-.93-.08-1.89,.6-2.19,1.55-.14,.44-.16,.89-.16,1.34,0,2.74,0,5.49,0,8.23,0,.53,0,1.06,0,1.68Zm7.63-1.86c0,2.8-.01,5.6,0,8.4,0,1.35,.83,2.37,2.04,2.38,2.97,.05,5.94,.05,8.91,0,1.23-.02,2.06-1.05,2-2.28-.05-1.14-.89-1.98-2.1-2.01-1.84-.04-3.68-.04-5.51-.01-.71,0-1.05-.24-1.02-.99,.03-.79,.03-1.58,0-2.38-.03-.73,.27-1,1-.98,1.78,.04,3.56,.03,5.34,0,1.23-.02,2.14-.79,2.27-1.87,.16-1.35-.68-2.41-2.06-2.46-1.86-.06-3.73-.04-5.6-.03-.67,0-.99-.26-.96-.95,.03-.82,.02-1.64,0-2.46-.01-.64,.24-.91,.9-.9,1.64,.03,3.28,.02,4.92,0,.42,0,.85-.05,1.26-.15,.94-.25,1.52-1.03,1.54-1.99,.03-1.01-.53-1.82-1.47-2.14-.38-.13-.77-.15-1.17-.15-2.54,0-5.09,0-7.63,0-1.79,0-2.67,.87-2.67,2.65,0,2.77,0,5.55,0,8.32Zm-43.63-.05c0,2.85-.01,5.71,0,8.56,0,1.42,.86,2.28,2.27,2.29,2.8,.02,5.59,.02,8.39,0,1.29,0,2.26-.94,2.29-2.13,.03-1.24-.92-2.16-2.29-2.19-1.52-.03-3.05,0-4.58-.01q-1.77,0-1.77-1.73c0-4.41,0-8.82,0-13.23,0-.92-.3-1.67-1.11-2.14-1.45-.87-3.18,.15-3.2,1.93-.04,2.88,0,5.77-.01,8.65Zm15.28-.04h0c0,2.83,0,5.66,0,8.48,0,.95,.31,1.73,1.19,2.17,1.49,.76,3.11-.32,3.12-2.12,.02-5.68,0-11.37,0-17.05,0-.25-.02-.51-.09-.75-.28-.98-1.32-1.7-2.25-1.59-1.12,.14-1.95,1.02-1.96,2.2-.02,2.88,0,5.77,0,8.65Z"/>
  </g>
</svg>