<?xml version="1.0" encoding="UTF-8"?>
<svg id="_圖層_2" data-name="圖層 2" xmlns="http://www.w3.org/2000/svg" viewBox="0 0 263.14 250.29">
  <defs>
    <style>
      .cls-1 {
        fill: #fff;
      }
    </style>
  </defs>
  <g id="_圖層_1-2" data-name="圖層 1">
    <path class="cls-1" d="M263.14,233.35v16.94H0v-16.94H120.62v-16.94H24.24v-15.19H120.62v-16.06H32.71V112.44H233.35v72.72h-92v16.06h98.13v15.19h-98.13v16.94h121.79Zm-1.46-134.05H1.75v-16.65H261.68v16.65Zm-37.09-28.62H37.97V0H224.59V70.68ZM52.86,142.23H120.62v-16.35H52.86v16.35Zm67.76,29.5v-16.65H52.86v16.65H120.62ZM203.27,13.14H58.7v15.77H203.27V13.14Zm0,28.33H58.7v16.06H203.27v-16.06Zm8.76,84.4h-70.68v16.35h70.68v-16.35Zm0,29.21h-70.68v16.65h70.68v-16.65Z"/>
  </g>
</svg>