<?xml version="1.0" encoding="UTF-8"?>
<svg id="_圖層_2" data-name="圖層 2" xmlns="http://www.w3.org/2000/svg" viewBox="0 0 433.72 204.52">
  <defs>
    <style>
      .cls-1 {
        fill: #fff;
      }
    </style>
  </defs>
  <g id="_圖層_1-2" data-name="圖層 1">
    <g>
      <path class="cls-1" d="M0,47.26H16.55l1.77,12.63h.66c10.82-8.15,24.28-15.48,38.19-15.48,30.9,0,47.68,22.41,47.68,56.43,0,37.89-24.5,59.69-52.09,59.69-10.82,0-22.29-4.69-33.11-12.83l.44,19.35v37.48H0V47.26Zm83.88,53.78c0-24.44-8.83-40.94-31.56-40.94-10.15,0-20.53,5.3-32.23,15.28v58.06c10.82,8.56,21.41,11.61,29.36,11.61,19.87,0,34.43-16.5,34.43-44Z"/>
      <path class="cls-1" d="M132.44,12.02c0-7.13,5.52-12.02,13.46-12.02s13.46,4.89,13.46,12.02c0,7.54-5.52,12.43-13.46,12.43s-13.46-4.89-13.46-12.43Zm3.31,35.24h20.09v110.61h-20.09V47.26Z"/>
      <path class="cls-1" d="M181.22,148.5h13.91v-25.06h13.69v-12.63h13.46v-10.39h-13.46v-12.63h-13.69v-25.26h-13.91v-14.67h16.33v12.63h13.46v25.06h13.69v12.63h11.26v-12.63h13.69v-25.06h13.69v-12.63h15.89v14.67h-13.69v25.26h-13.46v12.63h-13.69v10.39h13.69v12.63h13.46v25.06h13.69v15.07h-15.89v-12.83h-13.69v-25.26h-13.69v-12.43h-11.26v12.43h-13.69v25.26h-13.46v12.83h-16.33v-15.07Z"/>
      <path class="cls-1" d="M304.39,138.11h-13.91V72.93h13.91v-12.43h13.69v-12.63h43.26v12.63h13.46v12.43h13.69v40.13h-81.67v23.02h13.46v12.43h38.63v-12.43h13.69v-12.63h15.89v14.67h-13.69v12.63h-13.46v12.83h-43.26v-12.83h-13.69v-12.63Zm68.21-39.93v-23.02h-13.69v-12.63h-38.63v12.63h-13.46v23.02h65.78Z"/>
      <path class="cls-1" d="M417.6,9.98h16.11V163.58h-16.11V9.98Z"/>
    </g>
  </g>
</svg>