<?xml version="1.0" encoding="UTF-8"?>
<svg id="_圖層_2" data-name="圖層 2" xmlns="http://www.w3.org/2000/svg" viewBox="0 0 316.01 342.43">
  <defs>
    <style>
      .cls-1 {
        fill: #5a8cc9;
      }
    </style>
  </defs>
  <g id="_圖層_1-2" data-name="圖層 1">
    <path class="cls-1" d="M59.54,69.97c-13.39,17.49-28.18,33.13-43.33,45.78-2.82-5.21-10.92-16.38-16.21-21.59C29.59,71.84,57.78,36.48,74.69,0l23.25,7.82c-5.99,12.65-13.03,25.31-20.79,37.22h227.58v24.94H59.54ZM316.01,220.72v24.94H5.64v-24.94H59.54v-63.28H17.26v-24.94H59.54v-40.94h23.6v40.94h36.64v-40.94h22.55v40.94h40.87v-40.94h22.55v40.94h38.75v-40.94h24.31v40.94h39.81v24.94h-39.81v63.28h47.21ZM11.27,332.01c12.33-17.87,26.78-46.9,35.58-71.09l24.66,6.7c-8.81,24.19-22.55,55.09-35.58,74.81l-24.66-10.42Zm71.87-111.29h36.64v-63.28h-36.64v63.28Zm46.86,48.39c4.58,21.59,8.46,49.5,8.81,66.25l-25.72,4.09c0-17.12-3.17-45.78-7.4-68.11l24.31-2.23Zm12.33-111.66v63.28h40.87v-63.28h-40.87Zm59.89,108.68c9.86,21.22,19.38,49.5,22.9,67l-25.72,5.58c-3.17-17.49-12.33-46.15-21.14-68.11l23.96-4.47Zm3.52-108.68v63.28h38.75v-63.28h-38.75Zm68.7,101.61c13.04,22.33,29.24,52.85,36.99,71.09l-25.37,11.54c-6.69-18.61-22.55-49.5-35.23-72.58l23.6-10.05Z"/>
  </g>
</svg>