<?xml version="1.0" encoding="UTF-8"?>
<svg id="_圖層_2" data-name="圖層 2" xmlns="http://www.w3.org/2000/svg" viewBox="0 0 308.25 326.43">
  <defs>
    <style>
      .cls-1 {
        fill: #5a8cc9;
      }
    </style>
  </defs>
  <g id="_圖層_1-2" data-name="圖層 1">
    <path class="cls-1" d="M0,0H112.38V49.88h-21.49v46.15h-21.84v18.98h21.84v22.7h21.49v73.33h-21.49v22.71H25.37v92.68H0V0ZM87.02,206.95v-65.14h-21.84v-23.08h-21.84v-26.8h21.84V45.78h21.84V26.8H25.37V206.95h61.65Zm43.33,91.93V0h134.57V164.89h-65.53v42.06h21.84v23.08h17.97v-23.08h21.84v-23.08h21.49v-23.08h25.72v27.17h-21.84v23.08h-21.49v22.71h-21.84v42.06h21.84v23.08h43.33v27.54h-47.21v-23.08h-21.84v-23.45h-21.84v-46.15h-21.49v-22.71h-21.84v-46.15h-17.97v110.92h43.33v27.54h-65.17v23.08h-47.21v-27.54h43.33ZM239.21,68.86V26.8h-83.14v42.06h83.14Zm0,68.86v-41.69h-83.14v41.69h83.14Z"/>
  </g>
</svg>