<?xml version="1.0" encoding="UTF-8"?>
<svg id="_圖層_2" data-name="圖層 2" xmlns="http://www.w3.org/2000/svg" viewBox="0 0 322 340.94">
  <defs>
    <style>
      .cls-1 {
        fill: #5a8cc9;
      }
    </style>
  </defs>
  <g id="_圖層_1-2" data-name="圖層 1">
    <path class="cls-1" d="M144.44,310.05c0,14.14-2.82,20.47-12.33,24.57-8.81,4.09-24.31,4.47-46.15,4.47-1.41-7.07-4.93-16.38-8.46-23.08,16.91,.74,31.35,.37,35.93,.37,4.93,0,5.99-1.49,5.99-6.33v-57.32c-23.25,14.52-47.21,29.03-66.94,40.94l-9.16-22.33c-3.52,24.57-10.57,50.25-25.37,69.6-3.52-5.96-12.68-15.63-17.97-19.35,20.08-28.29,22.2-67.37,22.2-99.01v-90.82h122.25v178.29ZM121.89,27.17c17.26,25.31,37.34,60.3,46.15,82.26l-22.55,10.79c-2.82-7.44-6.69-16-11.27-25.31-95.47,8.19-107.8,9.68-115.9,13.77-1.41-5.58-5.29-19.36-8.46-26.05,5.64-1.12,11.62-6.7,18.67-14.52C35.23,60.3,58.48,30.15,73.28,0l26.07,9.31c-14.8,24.19-31.71,49.13-48.97,68.49l72.22-5.21c-7.05-12.66-14.45-25.31-21.84-36.85l21.14-8.56ZM46.5,222.95c0,14.14-.71,30.52-2.82,46.9,19.73-9.31,47.56-24.19,75.74-39.08v-75.19H46.5v67.37Zm16.56-46.15c18.67,11.54,43.33,28.29,56.02,38.71l-14.09,15.26c-12.33-10.79-36.64-27.92-55.66-40.2l13.74-13.77Zm152.9-16.38c-31,0-39.46-11.54-39.46-42.8V.37h25.72V51.74h94.77v24.57h-94.77v42.06c0,13.4,2.82,17.87,14.09,17.87h64.82c8.46,0,22.55-.37,29.24-2.23,.7,7.44,1.76,17.87,2.82,24.19-5.99,1.49-18.67,2.23-31.36,2.23h-65.88Zm63.77,151.86c14.8,0,17.26-7.07,19.02-46.9,5.99,4.47,16.21,8.56,23.25,10.42-3.17,48.39-10.92,61.04-40.16,61.04h-62.36c-34.17,0-42.98-8.56-42.98-39.08v-125.06h25.72v44.29h98.64v24.94h-98.64v55.83c0,12.28,3.17,14.52,19.73,14.52h57.78Z"/>
  </g>
</svg>