<?xml version="1.0" encoding="UTF-8"?>
<svg id="_圖層_2" data-name="圖層 2" xmlns="http://www.w3.org/2000/svg" viewBox="0 0 187.69 206.05">
  <defs>
    <style>
      .cls-1 {
        fill: #fff;
      }
    </style>
  </defs>
  <g id="_圖層_1-2" data-name="圖層 1">
    <g>
      <g>
        <path class="cls-1" d="M105.88,128.63l-15.17,15.17c-1.62,1.9-3.38,3.66-5.27,5.27-.02,.02-.04,.04-.06,.06-.01,0-.02,.02-.03,.03s-.02,.02-.03,.03c-.04,.04-.08,.07-.13,.11s-.08,.07-.13,.11-.08,.07-.13,.11-.08,.07-.13,.1-.08,.07-.13,.1-.08,.07-.13,.1-.09,.07-.13,.1-.09,.07-.13,.1-.09,.07-.13,.1-.09,.07-.13,.1-.09,.07-.13,.1-.09,.07-.13,.1-.09,.07-.13,.1-.09,.07-.13,.1-.09,.07-.13,.1-.09,.07-.13,.1-.09,.07-.13,.1-.09,.07-.13,.1-.09,.07-.13,.1-.09,.07-.13,.1-.09,.06-.13,.1-.09,.06-.13,.1-.09,.06-.13,.1-.09,.06-.13,.1-.09,.06-.13,.1-.09,.06-.13,.1-.09,.06-.13,.09-.09,.06-.13,.09-.09,.06-.13,.09-.09,.06-.14,.09-.09,.06-.14,.09-.09,.06-.14,.09-.09,.06-.14,.09-.09,.06-.14,.09-.09,.06-.14,.09-.09,.06-.14,.09-.09,.06-.14,.09-.09,.06-.14,.09-.09,.06-.14,.09-.09,.06-.14,.09-.09,.06-.14,.09-.09,.06-.14,.09-.09,.06-.14,.09-.09,.06-.14,.09-.09,.06-.14,.09-.09,.06-.14,.09-.09,.06-.14,.09-.09,.06-.14,.09-.09,.06-.14,.08-.09,.06-.14,.08-.09,.06-.14,.08-.09,.06-.14,.08-.09,.06-.14,.08-.09,.06-.14,.08-.09,.05-.14,.08-.09,.05-.14,.08-.1,.05-.14,.08-.1,.05-.14,.08-.1,.05-.14,.08-.1,.05-.14,.08-.1,.05-.14,.08-.1,.05-.14,.08-.1,.05-.14,.08-.1,.05-.14,.08-.1,.05-.14,.08-.1,.05-.15,.08-.1,.05-.15,.08-.1,.05-.15,.08-.1,.05-.15,.08-.1,.05-.15,.08-.1,.05-.15,.07-.1,.05-.15,.07-.1,.05-.15,.07-.1,.05-.15,.07-.1,.05-.15,.07-.1,.05-.15,.07-.1,.05-.15,.07-.1,.05-.15,.07-.1,.05-.15,.07-.1,.05-.15,.07-.1,.05-.15,.07-.1,.05-.15,.07-.1,.05-.15,.07-.1,.05-.15,.07-.1,.05-.15,.07-.1,.05-.15,.07-.1,.05-.15,.07-.1,.04-.15,.07-.1,.04-.15,.07-.1,.04-.15,.07-.1,.04-.15,.07-.1,.04-.15,.07-.1,.04-.15,.06-.1,.04-.15,.06-.1,.04-.15,.06-.1,.04-.15,.06-.1,.04-.15,.06-.1,.04-.15,.06-.1,.04-.15,.06-.1,.04-.15,.06-.1,.04-.15,.06-.1,.04-.15,.06-.1,.04-.15,.06-.1,.04-.15,.06-.1,.04-.15,.06-.1,.04-.15,.06-.1,.04-.15,.06-.1,.04-.15,.06-.1,.04-.15,.06-.1,.04-.15,.06-.1,.04-.15,.06-.1,.04-.15,.06-.1,.04-.15,.06-.1,.04-.15,.05-.1,.04-.15,.05-.1,.04-.16,.05-.1,.04-.16,.05-.1,.04-.16,.05-.1,.04-.16,.05-.1,.03-.16,.05-.1,.03-.16,.05-.1,.03-.16,.05-.1,.03-.16,.05-.1,.03-.16,.05-.1,.03-.16,.05-.1,.03-.16,.05-.1,.03-.16,.05-.1,.03-.16,.05-.1,.03-.16,.05-.1,.03-.16,.05-.1,.03-.16,.05-.1,.03-.16,.05-.11,.03-.16,.05-.11,.03-.16,.05-.11,.03-.16,.04-.11,.03-.16,.04-.11,.03-.16,.04-.11,.03-.16,.04-.11,.03-.16,.04-.11,.03-.16,.04-.11,.03-.16,.04-.11,.03-.16,.04-.11,.03-.16,.04-.11,.03-.16,.04-.11,.03-.16,.04-.11,.03-.16,.04-.11,.03-.16,.04-.11,.03-.16,.04-.11,.03-.16,.04-.11,.03-.16,.04-.11,.03-.16,.04-.11,.02-.16,.04-.11,.02-.16,.04-.11,.02-.16,.04-.11,.02-.16,.04-.11,.02-.16,.03-.11,.02-.16,.03-.11,.02-.16,.03-.11,.02-.16,.03-.11,.02-.16,.03-.11,.02-.16,.03-.11,.02-.16,.03-.11,.02-.16,.03-.11,.02-.16,.03-.11,.02-.16,.03-.11,.02-.16,.03-.11,.02-.16,.03-.11,.02-.16,.03-.11,.02-.16,.03-.11,.02-.16,.03-.11,.02-.16,.03-.11,.02-.16,.03-.11,.02-.16,.03-.11,.02-.16,.03-.11,.02-.16,.03-.11,.02-.16,.03-.11,.02-.16,.02-.11,.02-.16,.02-.11,.02-.16,.02-.11,.02-.16,.02-.11,.02-.16,.02-.11,.02-.16,.02-.11,.01-.16,.02-.11,.01-.16,.02-.11,.01-.16,.02-.11,.01-.16,.02-.11,.01-.16,.02-.11,.01-.16,.02-.11,.01-.16,.02-.11,.01-.16,.02-.11,.01-.16,.02-.11,.01-.16,.02-.11,.01-.16,.02-.11,.01-.16,.02-.11,.01-.16,.02-.11,.01-.16,.02-.11,.01-.16,.02-.11,0-.16,.01-.11,0-.16,.01-.11,0-.16,.01-.11,0-.16,.01-.11,0-.16,.01-.11,0-.16,.01-.11,0-.16,.01-.11,0-.16,.01-.11,0-.16,.01-.11,0-.16,.01-.11,0-.16,0-.11,0-.16,0-.11,0-.16,0-.11,0-.16,0-.11,0-.16,0-.11,0-.16,0-.11,0-.16,0-.11,0-.16,0-.11,0-.16,0-.11,0-.16,0-.11,0-.16,0-.11,0-.16,0-.11,0-.16,0-.11,0-.16,0-.11,0-.16,0-.11,0-.16,0-.11,0-.16,0-.11,0-.16,0-.11,0-.16,0-.11,0-.16,0-.11,0-.16,0-.11,0-.16,0-.11,0-.16,0-.11,0-.16,0-.11,0-.16,0-.11,0-.16,0-.11,0-.16,0-.11,0-.16,0-.11,0-.16,0-.11,0-.16,0-.11,0-.16,0-.11,0-.16,0-.11,0-.16,0-.11,0-.16,0-.11,0-.16,0-.11,0-.16,0-.11,0-.16,0-.11,0-.16,0-.11,0-.16,0-.11,0-.16,0-.11,0-.16,0-.11,0-.16-.01-.11,0-.16-.01-.11,0-.16-.01-.11,0-.16-.01-.11,0-.16-.01-.11,0-.16-.01-.11,0-.16-.01-.11,0-.16-.01-.11,0-.16-.01-.11,0-.16-.01-.11-.01-.16-.02-.11-.01-.16-.02-.11-.01-.16-.02-.11-.01-.16-.02-.11-.01-.16-.02-.11-.01-.16-.02-.11-.01-.16-.02-.11-.01-.16-.02-.11-.01-.16-.02-.11-.01-.16-.02-.11-.01-.16-.02-.11-.01-.16-.02-.11-.01-.16-.02-.11-.01-.16-.02-.11-.01-.16-.02-.11-.02-.16-.02-.11-.02-.16-.02-.11-.02-.16-.02-.11-.02-.16-.02-.11-.02-.16-.03-.11-.02-.16-.03-.11-.02-.16-.03-.11-.02-.16-.03-.11-.02-.16-.03-.11-.02-.16-.03-.11-.02-.16-.03-.11-.02-.16-.03-.11-.02-.16-.03-.11-.02-.16-.03-.11-.02-.16-.03-.11-.02-.16-.03-.11-.02-.16-.03-.11-.02-.16-.03-.11-.02-.16-.03-.11-.02-.16-.03-.11-.02-.16-.03-.11-.02-.16-.03-.11-.02-.16-.03-.11-.02-.16-.03-.1-.02-.16-.04-.1-.02-.16-.04-.1-.02-.16-.04-.1-.02-.16-.04-.1-.02-.16-.04-.1-.03-.16-.04-.1-.03-.16-.04-.1-.03-.16-.04-.1-.03-.16-.04-.1-.03-.16-.04-.1-.03-.16-.04-.1-.03-.16-.04-.1-.03-.16-.04-.1-.03-.16-.04-.1-.03-.16-.04-.1-.03-.16-.04-.1-.03-.16-.04-.1-.03-.15-.04-.1-.03-.15-.04-.1-.03-.15-.04-.1-.03-.15-.05-.1-.03-.15-.05-.1-.03-.15-.05-.1-.03-.15-.05-.1-.03-.15-.05-.1-.03-.15-.05-.1-.03-.15-.05-.1-.03-.15-.05-.1-.03-.15-.05-.1-.03-.15-.05-.1-.03-.15-.05-.1-.03-.15-.05-.1-.03-.15-.05-.1-.03-.15-.05-.1-.04-.15-.05-.1-.04-.15-.05-.1-.04-.15-.05-.1-.04-.15-.05-.1-.04-.15-.05-.1-.04-.15-.06-.1-.04-.15-.06-.1-.04-.15-.06-.1-.04-.15-.06-.1-.04-.15-.06-.1-.04-.15-.06-.1-.04-.15-.06-.1-.04-.15-.06-.1-.04-.15-.06-.1-.04-.15-.06-.1-.04-.15-.06-.1-.04-.15-.06-.1-.04-.15-.06-.1-.04-.15-.06-.1-.04-.15-.06-.1-.04-.15-.06-.1-.04-.15-.06-.1-.04-.15-.06-.1-.04-.15-.06-.1-.04-.15-.07-.1-.04-.15-.07-.1-.04-.15-.07-.1-.04-.15-.07-.1-.04-.15-.07c-.02-.01-.05-.02-.07-.03-15.77-7.35-26.9-22.75-29.47-39.89-.62-4.15-.76-8.39-.33-12.56,0-.03,5.16-52.1,5.16-52.1,.39-5.49,5.16-9.62,10.63-9.23,2.54,.18,5.04,1.38,6.73,3.3,1.66,1.91,1.74,4.58,2.58,6.89,.74,2.05,2.15,3.92,3.87,5.28,1.98,1.54,4.41,2.48,6.92,2.67,.5,.03,1,.04,1.49,.02,1.52-.07,2.98-.41,4.32-.98,2.92-1.22,5.33-3.56,6.64-6.45,1.51-3.3,.85-6.36,.21-9.72-.33-1.66-.48-3.45-.36-5.09,.79-11.07,10.42-19.41,21.49-18.62,4.05,.29,7.96,1.81,11.12,4.35,3.42,2.72,4.99,6.17,6.73,10.06,5.68,12.63,17.77,43.95,14.77,75.85-.42,4.45-.79,8.58-1.72,12.76l5.05,5.05Z"/>
        <g>
          <g>
            <rect class="cls-1" x="70.98" y="73.25" width="28.92" height="28.92" transform="translate(-37 86.1) rotate(-45)"/>
            <rect class="cls-1" x="70.97" y="114.17" width="28.92" height="28.92" transform="translate(-65.93 98.08) rotate(-45)"/>
            <rect class="cls-1" x="111.87" y="114.17" width="28.92" height="28.92" transform="translate(-53.95 127) rotate(-45)"/>
          </g>
          <g>
            <g>
              <rect class="cls-1" x="152.77" y="32.35" width="28.92" height="28.92" transform="translate(15.88 131.96) rotate(-45)"/>
              <rect class="cls-1" x="50.51" y="93.71" width="28.92" height="28.92" transform="translate(-57.46 77.63) rotate(-45)"/>
              <rect class="cls-1" x="91.41" y="93.71" width="28.92" height="28.92" transform="translate(-45.48 106.54) rotate(-45)"/>
              <rect class="cls-1" x="132.33" y="93.71" width="28.92" height="28.92" transform="translate(-33.5 135.48) rotate(-45)"/>
              <rect class="cls-1" x="91.42" y="52.8" width="28.92" height="28.92" transform="translate(-16.55 94.57) rotate(-45)"/>
              <rect class="cls-1" x="91.42" y="134.62" width="28.92" height="28.92" transform="translate(-74.4 118.53) rotate(-45)"/>
            </g>
            <g>
              <rect class="cls-1" x="111.87" y="32.35" width="28.92" height="28.92" transform="translate(3.9 103.04) rotate(-45)"/>
              <rect class="cls-1" x="111.87" y="73.25" width="28.92" height="28.92" transform="translate(-25.02 115.02) rotate(-45)"/>
            </g>
          </g>
        </g>
        <rect class="cls-1" x="13.87" y="0" width="28.92" height="28.92" rx="14.46" ry="14.46" transform="translate(1.64 31.77) rotate(-60)"/>
      </g>
      <g>
        <path class="cls-1" d="M170.64,205.96c-3.17,0-5.75-2.58-5.75-5.75s2.58-5.75,5.75-5.75,5.75,2.58,5.75,5.75-2.58,5.75-5.75,5.75Zm0-9.94c-2.31,0-4.18,1.88-4.18,4.18s1.88,4.18,4.18,4.18,4.18-1.88,4.18-4.18-1.88-4.18-4.18-4.18Z"/>
        <g>
          <path class="cls-1" d="M39.79,201.09c-.4,0-.74-.28-.77-.69,0-.07,0-.13,0-.2s0-.13,0-.19c.07-3.04,2.65-5.56,5.74-5.56,.45,0,.89,.05,1.31,.15,.42,.1,.68,.52,.58,.95-.1,.42-.53,.68-.95,.58-.3-.07-.62-.11-.94-.11-2.25,0-4.13,1.83-4.18,4.07l-.79,.11h.78c.04,.43-.28,.84-.71,.88-.02,0-.05,0-.07,0Z"/>
          <path class="cls-1" d="M39.8,205.96c-.43,0-.78-.35-.78-.78v-5.09c0-.43,.35-.78,.78-.78s.78,.35,.78,.78v5.09c0,.43-.35,.78-.78,.78Z"/>
        </g>
        <g>
          <path class="cls-1" d="M53.35,206.04c-2.77,0-5.03-2.26-5.03-5.03,0-.43,.35-.78,.78-.78s.78,.35,.78,.78c0,1.91,1.55,3.46,3.46,3.46s3.46-1.55,3.46-3.46c0-.43,.35-.78,.78-.78s.78,.35,.78,.78c0,2.77-2.26,5.03-5.03,5.03Z"/>
          <path class="cls-1" d="M49.1,201.8c-.43,0-.78-.35-.78-.78v-5.77c0-.43,.35-.78,.78-.78s.78,.35,.78,.78v5.77c0,.43-.35,.78-.78,.78Z"/>
          <path class="cls-1" d="M57.6,201.8c-.43,0-.78-.35-.78-.78v-5.77c0-.43,.35-.78,.78-.78s.78,.35,.78,.78v5.77c0,.43-.35,.78-.78,.78Z"/>
        </g>
        <g>
          <path class="cls-1" d="M79.9,200.27c-.43,0-.78-.35-.78-.78,0-1.91-1.55-3.46-3.46-3.46s-3.46,1.55-3.46,3.46c0,.43-.35,.78-.78,.78s-.78-.35-.78-.78c0-2.77,2.26-5.03,5.03-5.03s5.03,2.26,5.03,5.03c0,.43-.35,.78-.78,.78Z"/>
          <path class="cls-1" d="M71.41,206.02c-.43,0-.78-.35-.78-.78v-13.91c0-.43,.35-.78,.78-.78s.78,.35,.78,.78v13.91c0,.43-.35,.78-.78,.78Z"/>
          <path class="cls-1" d="M79.9,206.02c-.43,0-.78-.35-.78-.78v-5.75c0-.43,.35-.78,.78-.78s.78,.35,.78,.78v5.75c0,.43-.35,.78-.78,.78Z"/>
        </g>
        <g>
          <path class="cls-1" d="M153.58,205.96c-3.17,0-5.75-2.58-5.75-5.75s2.58-5.75,5.75-5.75c1.21,0,2.37,.37,3.35,1.08,.35,.25,.43,.74,.18,1.1-.25,.35-.74,.43-1.1,.18-.71-.51-1.55-.78-2.43-.78-2.31,0-4.19,1.88-4.19,4.18s1.88,4.18,4.19,4.18,4.18-1.88,4.18-4.18c0-.43,.35-.78,.78-.78s.78,.35,.78,.78c0,3.17-2.58,5.75-5.75,5.75Z"/>
          <path class="cls-1" d="M158.54,200.99c-.43,0-.78-.35-.78-.78v-8.8c0-.43,.35-.78,.78-.78s.78,.35,.78,.78v8.8c0,.43-.35,.78-.78,.78Z"/>
        </g>
        <g>
          <path class="cls-1" d="M33.14,205.96c-.43,0-.78-.35-.78-.78s.35-.78,.78-.78c1.46,0,2.66-1.19,2.66-2.66s-1.19-2.66-2.66-2.66c-.43,0-.78-.35-.78-.78s.35-.78,.78-.78c2.33,0,4.22,1.9,4.22,4.22s-1.9,4.22-4.22,4.22Z"/>
          <path class="cls-1" d="M32.76,199.08c-.43,0-.79-.35-.79-.78s.34-.78,.77-.78c1.49,0,2.68-1.19,2.68-2.66s-1.19-2.66-2.66-2.66h-.1s-.08-.78-.08-.78l.02-.78s.09,0,.16,0c2.33,0,4.23,1.89,4.23,4.22s-1.9,4.23-4.23,4.23Z"/>
          <path class="cls-1" d="M26.99,205.96c-.43,0-.78-.35-.78-.78v-13.76c0-.43,.35-.78,.78-.78s.78,.35,.78,.78v13.76c0,.43-.35,.78-.78,.78Z"/>
          <path class="cls-1" d="M33.05,205.96h-3.33c-.43,0-.78-.35-.78-.78s.35-.78,.78-.78h3.33c.43,0,.78,.35,.78,.78s-.35,.78-.78,.78Z"/>
          <path class="cls-1" d="M33.05,199.08h-3.33c-.43,0-.78-.35-.78-.78s.35-.78,.78-.78h3.33c.43,0,.78,.35,.78,.78s-.35,.78-.78,.78Z"/>
          <path class="cls-1" d="M32.45,192.2h-5.45c-.43,0-.78-.35-.78-.78s.35-.78,.78-.78h5.45c.43,0,.78,.35,.78,.78s-.35,.78-.78,.78Z"/>
        </g>
        <g>
          <path class="cls-1" d="M117.77,206.05c-.09,0-.18,0-.27,0-.43-.03-.76-.4-.74-.83,.03-.43,.4-.77,.83-.74,.06,0,.11,0,.17,0,1.48,0,2.68-1.2,2.68-2.68s-1.2-2.68-2.68-2.68c-.43,0-.78-.35-.78-.78s.35-.78,.78-.78c2.34,0,4.25,1.91,4.25,4.25s-1.91,4.25-4.25,4.25Z"/>
          <path class="cls-1" d="M115.69,199.12c-2.34,0-4.25-1.91-4.25-4.25s1.91-4.25,4.25-4.25c.08,0,.17,0,.25,0,.43,.02,.77,.39,.75,.82s-.4,.76-.82,.74h-.18c-1.48,0-2.68,1.2-2.68,2.67s1.2,2.68,2.68,2.68c.43,0,.78,.35,.78,.78s-.35,.78-.78,.78Z"/>
          <path class="cls-1" d="M120.4,192.2h-4.71c-.43,0-.78-.35-.78-.78s.35-.78,.78-.78h4.71c.43,0,.78,.35,.78,.78s-.35,.78-.78,.78Z"/>
          <path class="cls-1" d="M117.77,206.05h-4.71c-.43,0-.78-.35-.78-.78s.35-.78,.78-.78h4.71c.43,0,.78,.35,.78,.78s-.35,.78-.78,.78Z"/>
          <path class="cls-1" d="M117.77,199.12h-2.07c-.43,0-.78-.35-.78-.78s.35-.78,.78-.78h2.07c.43,0,.78,.35,.78,.78s-.35,.78-.78,.78Z"/>
        </g>
        <g>
          <path class="cls-1" d="M12.08,194.17c-.16,0-.31-.05-.45-.14-.35-.25-.44-.74-.19-1.09,.04-.06,.09-.12,.14-.18l.03-.03s.02-.02,.02-.03l.04-.04c1.1-1.29,2.69-2.03,4.38-2.03,.43,0,.78,.35,.78,.78s-.35,.78-.78,.78c-1.19,0-2.31,.5-3.11,1.38h0s-.09,.11-.09,.11c-.04,.05-.08,.1-.12,.15-.15,.22-.4,.33-.64,.33Z"/>
          <path class="cls-1" d="M20.88,196.04c-.43,0-.78-.35-.78-.78h0c0-.44,.35-.79,.78-.79s.78,.35,.78,.78-.35,.79-.78,.79Z"/>
          <path class="cls-1" d="M19.51,198.41c-.24,0-.48-.11-.63-.32-.26-.35-.18-.84,.17-1.1,.59-.44,.98-1.1,1.06-1.83,.01-.11,.02-.21,.02-.32,0-1.46-1.19-2.66-2.66-2.66-.43,0-.78-.35-.78-.78s.35-.78,.78-.78c2.33,0,4.23,1.89,4.23,4.22,0,.17,0,.33-.03,.49-.13,1.15-.75,2.21-1.69,2.91-.14,.1-.3,.15-.47,.15Z"/>
          <path class="cls-1" d="M20.87,205.96H12.08c-.43,0-.78-.35-.78-.79,0-.43,.35-.78,.78-.78h8.79c.43,0,.78,.35,.78,.79,0,.43-.35,.78-.78,.78Z"/>
          <path class="cls-1" d="M17.46,192.2h-1.42c-.43,0-.78-.35-.78-.78s.35-.78,.78-.78h1.42c.43,0,.78,.35,.78,.78s-.35,.78-.78,.78Z"/>
          <path class="cls-1" d="M12.08,205.96c-.43,0-.78-.35-.78-.78,0-1.15,.45-2.22,1.27-3.02l.56,.55,.52,.59h0c-.49,.48-.77,1.16-.77,1.88,0,.43-.35,.78-.78,.78Z"/>
          <path class="cls-1" d="M13.12,203.5c-.2,0-.4-.08-.55-.23-.31-.31-.31-.8,0-1.11,.41-.41,.88-.75,1.33-1.09,.21-.15,.41-.3,.61-.46l4.52-3.6c.34-.27,.83-.21,1.1,.12,.27,.34,.21,.83-.12,1.1l-4.52,3.61c-.21,.17-.43,.33-.65,.49-.42,.31-.82,.6-1.15,.93-.15,.15-.35,.23-.55,.23Z"/>
        </g>
        <g>
          <path class="cls-1" d="M65.71,205.96c-.43,0-.78-.35-.78-.78s.35-.78,.78-.78c.94,0,1.7-.76,1.7-1.7s-.76-1.7-1.7-1.7c-.43,0-.78-.35-.78-.78s.35-.78,.78-.78c1.8,0,3.27,1.47,3.27,3.27s-1.47,3.27-3.27,3.27Z"/>
          <path class="cls-1" d="M63.29,200.99c-1.8,0-3.27-1.47-3.27-3.27s1.47-3.27,3.27-3.27c.43,0,.78,.35,.78,.78s-.35,.78-.78,.78c-.94,0-1.7,.76-1.7,1.7s.76,1.7,1.7,1.7c.43,0,.78,.35,.78,.78s-.35,.78-.78,.78Z"/>
          <path class="cls-1" d="M65.71,200.99h-2.42c-.43,0-.78-.35-.78-.78s.35-.78,.78-.78h2.42c.43,0,.78,.35,.78,.78s-.35,.78-.78,.78Z"/>
          <path class="cls-1" d="M67.8,196.02h-4.51c-.43,0-.78-.35-.78-.78s.35-.78,.78-.78h4.51c.43,0,.78,.35,.78,.78s-.35,.78-.78,.78Z"/>
          <path class="cls-1" d="M65.71,205.96h-4.3c-.43,0-.78-.35-.78-.78s.35-.78,.78-.78h4.3c.43,0,.78,.35,.78,.78s-.35,.78-.78,.78Z"/>
        </g>
        <g>
          <path class="cls-1" d="M88.08,205.96c-3.17,0-5.75-2.58-5.75-5.75s2.58-5.75,5.75-5.75,5.75,2.58,5.75,5.75c0,.43-.35,.78-.78,.78s-.78-.35-.78-.78c0-2.31-1.88-4.18-4.19-4.18s-4.18,1.88-4.18,4.18,1.88,4.18,4.18,4.18c1.49,0,2.88-.8,3.62-2.09,.22-.37,.7-.5,1.07-.29,.38,.22,.5,.7,.29,1.07-1.02,1.77-2.93,2.88-4.98,2.88Z"/>
          <path class="cls-1" d="M93.05,200.99h-7.26c-.43,0-.78-.35-.78-.78s.35-.78,.78-.78h7.26c.43,0,.78,.35,.78,.78s-.35,.78-.78,.78Z"/>
        </g>
        <g>
          <path class="cls-1" d="M129.41,205.96c-3.17,0-5.75-2.58-5.75-5.75,0-.43,.35-.78,.78-.78s.78,.35,.78,.78c0,2.31,1.88,4.18,4.18,4.18,1.47,0,2.85-.79,3.6-2.05,.22-.37,.7-.5,1.07-.28,.37,.22,.5,.7,.28,1.07-1.03,1.74-2.93,2.83-4.95,2.83Z"/>
          <path class="cls-1" d="M124.45,200.99c-.43,0-.78-.35-.78-.78v-8.79c0-.43,.35-.78,.78-.78s.78,.35,.78,.78v8.79c0,.43-.35,.78-.78,.78Z"/>
          <path class="cls-1" d="M131.08,196.03h-6.64c-.43,0-.78-.35-.78-.78s.35-.78,.78-.78h6.64c.43,0,.78,.35,.78,.78s-.35,.78-.78,.78Z"/>
        </g>
        <g>
          <path class="cls-1" d="M101.16,205.96c-.43,0-.78-.35-.78-.78s.35-.78,.78-.78c.94,0,1.7-.76,1.7-1.7s-.76-1.7-1.7-1.7c-.43,0-.78-.35-.78-.78s.35-.78,.78-.78c1.8,0,3.27,1.47,3.27,3.27s-1.47,3.27-3.27,3.27Z"/>
          <path class="cls-1" d="M98.75,200.99c-1.8,0-3.27-1.47-3.27-3.27s1.47-3.27,3.27-3.27c.43,0,.78,.35,.78,.78s-.35,.78-.78,.78c-.94,0-1.7,.76-1.7,1.7s.76,1.7,1.7,1.7c.43,0,.78,.35,.78,.78s-.35,.78-.78,.78Z"/>
          <path class="cls-1" d="M101.16,200.99h-2.42c-.43,0-.78-.35-.78-.78s.35-.78,.78-.78h2.42c.43,0,.78,.35,.78,.78s-.35,.78-.78,.78Z"/>
          <path class="cls-1" d="M103.26,196.02h-4.51c-.43,0-.78-.35-.78-.78s.35-.78,.78-.78h4.51c.43,0,.78,.35,.78,.78s-.35,.78-.78,.78Z"/>
          <path class="cls-1" d="M101.16,205.96h-4.3c-.43,0-.78-.35-.78-.78s.35-.78,.78-.78h4.3c.43,0,.78,.35,.78,.78s-.35,.78-.78,.78Z"/>
        </g>
        <g>
          <path class="cls-1" d="M141.15,206.04c-2.77,0-5.03-2.26-5.03-5.03,0-.43,.35-.78,.78-.78s.78,.35,.78,.78c0,1.91,1.55,3.46,3.46,3.46s3.46-1.55,3.46-3.46c0-.43,.35-.78,.78-.78s.78,.35,.78,.78c0,2.77-2.26,5.03-5.03,5.03Z"/>
          <path class="cls-1" d="M136.9,201.8c-.43,0-.78-.35-.78-.78v-5.77c0-.43,.35-.78,.78-.78s.78,.35,.78,.78v5.77c0,.43-.35,.78-.78,.78Z"/>
          <path class="cls-1" d="M145.4,201.8c-.43,0-.78-.35-.78-.78v-5.77c0-.43,.35-.78,.78-.78s.78,.35,.78,.78v5.77c0,.43-.35,.78-.78,.78Z"/>
        </g>
        <g>
          <path class="cls-1" d="M162.12,206.05c-.43,0-.78-.35-.78-.78v-10.02c0-.43,.35-.78,.78-.78s.78,.35,.78,.78v10.02c0,.43-.35,.78-.78,.78Z"/>
          <circle class="cls-1" cx="162.11" cy="192.37" r=".96"/>
        </g>
      </g>
    </g>
  </g>
</svg>